<svg width="63" height="86" viewBox="0 0 63 86" fill="none" xmlns="http://www.w3.org/2000/svg">
<g id="logo_scroll">
<path d="M62.8578 4.73866V56.4641C62.8578 72.7496 49.6258 86 33.3562 86H3.76853C1.83349 86 0.257812 84.4225 0.257812 82.4852V33.5088C0.257812 17.2203 13.4929 3.97297 29.7595 3.97297H32.8156C33.0828 3.97297 33.3009 4.18822 33.3009 4.45883C33.3009 4.72943 33.0828 4.94468 32.8156 4.94468H29.7595C14.0273 4.94468 1.2284 17.7584 1.2284 33.5088V82.4852C1.2284 83.8874 2.36793 85.0283 3.76853 85.0283H33.3562C49.0883 85.0283 61.8872 72.2145 61.8872 56.4641V4.73866C61.8872 4.46805 62.1053 4.2528 62.3725 4.2528C62.6397 4.2528 62.8578 4.46805 62.8578 4.73866Z" fill="#3C1913"/>
<path d="M55.0654 9.88937H31.4948C17.5441 9.88937 6.23493 21.2117 6.23493 35.1786V78.0079C6.23493 79.238 7.23009 80.2373 8.45868 80.2373H31.8634C45.8111 80.2373 57.1203 68.915 57.1203 54.9512V11.9466C57.1203 10.815 56.1958 9.88937 55.0654 9.88937ZM14.4389 79.2656H13.5696C12.9738 79.2656 12.4823 78.7828 12.4793 78.1863C12.4639 76.6303 12.8816 75.1604 13.4406 73.3769C13.5297 73.0878 13.6188 72.8142 13.7171 72.5405C14.0611 71.5872 14.4542 70.6893 14.8996 69.8744C16.5336 66.8701 18.6192 65.2495 20.8245 63.5337C23.0513 61.8055 25.3519 60.0158 27.161 56.7224C28.4234 54.4284 28.924 52.3435 29.0469 50.969C29.1083 50.271 29.4584 49.6221 30.0082 49.1885C31.0218 48.3921 31.6638 47.5157 31.9218 46.5686C31.9924 46.2949 32.0477 43.4689 32.0815 41.1196C32.06 40.603 32.1829 40.234 32.4255 40.0864C32.6282 39.9634 32.9231 39.9788 33.2026 40.1294C33.5558 40.3293 33.7677 40.6768 33.7739 41.0704C33.7739 41.3964 33.734 41.9622 33.6817 42.6141C33.4637 45.3201 33.1012 49.8435 34.8428 51.79C35.2021 52.1898 35.5861 52.5865 35.9915 52.977L36.0621 53.0447C37.4259 56.4241 33.1995 64.3086 27.0596 67.5589L26.3225 67.9464C23.3554 69.5023 19.9891 71.2674 17.581 74.5608C16.7026 75.7601 16.0115 77.067 15.477 78.5399C15.3204 78.9766 14.9027 79.2656 14.4389 79.2656ZM23.5397 40.8828C23.5366 40.8367 23.5305 40.7906 23.5243 40.7444H23.5397C23.681 33.9517 25.4962 29.173 28.9394 26.5408C32.0969 24.1269 35.8901 24.1515 37.7883 24.3606C37.8375 24.3667 37.8835 24.3698 37.9296 24.3759C38.0187 24.3882 38.0985 24.3975 38.1784 24.4098C38.1815 24.4128 38.1876 24.4128 38.1907 24.4128C38.1907 24.4128 38.1927 24.4128 38.1968 24.4128C38.4456 24.4467 38.6453 24.4836 38.7804 24.5112C38.7804 24.5112 38.7825 24.5112 38.7866 24.5112C38.8603 24.5174 38.934 24.5235 39.0046 24.5297C46.5236 25.2031 48.4617 31.1503 48.8825 32.9953C49.3095 34.8649 49.202 35.9197 49.0883 37.0359C49.0177 37.7217 48.947 38.4289 48.9993 39.3176C49.0423 40.3724 49.0515 41.2549 49.0576 41.7777C49.0607 42.079 49.0822 42.3681 49.1037 42.6295C49.1098 42.7094 49.116 42.7832 49.119 42.8539C49.1774 43.6227 49.1866 44.1578 49.1743 44.5083C49.0822 44.4376 48.9931 44.3669 48.904 44.3023C48.7228 44.1608 48.4679 43.964 48.342 43.8287C48.2959 43.7764 48.2682 43.7088 48.2621 43.6381C48.1454 41.464 47.6417 40.0495 47.3959 39.3699C47.3622 39.2684 47.3314 39.1854 47.3099 39.1177L47.2731 39.0316C47.2485 38.9886 44.7882 34.6866 38.0125 37.2758C37.4259 37.5003 37.0512 37.8416 36.9007 38.2875C36.7164 38.8287 36.9467 39.3084 37.0174 39.4314C38.4978 42.4849 41.3973 42.6787 43.3139 42.8047L43.5904 42.8232C45.0002 42.9216 45.0155 43.6996 45.0125 43.7764V52.9401L45.0432 57.402C45.0432 57.8756 44.521 58.1554 44.1309 57.8879C43.747 57.6203 43.3293 57.3436 42.8901 57.0514L42.7426 56.95C40.7277 55.6 38.7651 54.247 36.9621 52.5619L36.8054 52.4143C36.3693 52.0022 35.9516 51.5686 35.5676 51.1381C34.1056 49.5053 34.4558 45.0741 34.6493 42.691C34.7045 41.9898 34.7476 41.4333 34.7445 41.0612C34.7353 40.3262 34.3237 39.6405 33.6664 39.2776C33.0859 38.9578 32.4163 38.9486 31.9187 39.2592C31.5962 39.456 31.0679 39.9665 31.1109 41.1319C31.0863 42.98 31.0249 46.0243 30.9819 46.3134C30.8406 46.83 30.5458 47.3281 30.0942 47.8078C29.6427 48.2875 29.0346 48.7457 28.2759 49.1793C26.5037 50.1941 24.2861 50.8521 22.7442 51.2212C22.3265 51.3196 21.3436 51.5994 20.5818 51.8669C19.9583 52.0883 19.5468 52.2267 19.6942 51.8239C21.491 47.0022 23.6933 42.5464 23.5397 40.8828ZM22.6305 35.9443C22.1053 33.1706 21.8903 30.0187 23.7301 24.8925C25.2904 20.5413 28.5186 17.6231 33.3224 16.2148C39.4807 14.4097 46.797 15.6459 50.793 17.5493C51.7298 17.9921 52.1598 19.0899 51.7912 20.0586C51.266 21.4423 50.5074 23.2935 49.9576 24.4959C49.7579 24.9264 49.2173 25.0525 48.8426 24.7665C45.2674 22.0666 41.2622 21.9651 39.407 22.617C39.0845 22.7308 38.8142 22.8692 38.5961 23.0321C38.289 23.2566 37.9265 23.3858 37.5487 23.3489C35.4171 23.1551 31.63 23.2658 28.3589 25.7597C25.5577 27.9 23.7608 31.3133 22.9899 35.9351C22.9561 36.138 22.6674 36.1442 22.6305 35.9443ZM47.571 48.2968C47.5956 48.3306 47.6324 48.3675 47.6478 48.4044C47.6509 48.4136 47.6509 48.4229 47.6539 48.429C47.6539 48.4598 47.6417 48.4905 47.6232 48.5151C47.614 48.5274 47.4758 48.7058 47.4727 48.7058C47.6355 48.8441 47.8904 49.1363 47.9089 49.3361C47.9119 49.3792 47.9058 49.4161 47.8567 49.4714C47.27 50.1449 47.0274 50.4247 47.4052 51.0243C47.4359 51.0766 47.4789 51.1412 47.5219 51.2273L47.5557 51.2919C47.8321 51.8208 47.8904 52.0176 47.4973 52.3159C47.3038 52.4635 47.0519 52.568 46.7694 52.6203L46.2349 52.7095C46.1151 52.731 46.0107 52.6387 46.0076 52.5219L45.9831 43.8226C45.9892 43.6903 45.98 43.1491 45.55 42.651C45.3534 42.4234 45.1015 42.242 44.8005 42.1128H44.7698C44.5149 42.0021 44.22 41.9253 43.8914 41.8853C43.8852 41.8853 43.8822 41.8791 43.8729 41.8761C43.8023 41.8668 43.7317 41.8607 43.6579 41.8545L43.3784 41.833C41.4803 41.71 39.1183 41.5532 37.8835 38.9947L37.8651 38.9578C37.8651 38.9578 37.7607 38.7672 37.8221 38.595C37.8928 38.3982 38.1508 38.266 38.3596 38.1829C44.0695 35.9966 46.1704 39.087 46.4038 39.4652C46.4284 39.5359 46.453 39.6098 46.4837 39.6928C46.7141 40.3416 47.1963 41.6916 47.2977 43.7703C47.3161 44.1332 47.5311 44.413 47.8352 44.6836C48.001 44.8343 47.9734 45.0956 47.7799 45.2094C47.5833 45.3263 47.4205 45.4831 47.3345 45.6922C47.2362 45.9413 47.2086 46.3349 47.6632 46.8177C47.7 46.8577 48.044 47.2082 48.1884 47.3589C48.2252 47.3958 48.2191 47.4542 48.1792 47.485C47.9826 47.6264 47.4666 47.9431 47.3222 48.0508C47.3621 48.02 47.5403 48.2568 47.571 48.2968ZM21.8534 44.0194C20.9719 46.5686 19.3041 50.5077 18.6437 52.1037C18.0387 53.5674 13.5666 56.9161 11.521 60.3971C11.4319 60.5509 11.1985 60.4832 11.2015 60.3079C11.3612 54.4746 13.2041 49.6436 16.6012 46.215C18.0909 44.7082 19.6266 43.7272 20.803 43.1184C21.4019 42.8078 22.0746 43.3798 21.8534 44.0194ZM11.6715 62.2729C13.2656 58.3737 17.0343 55.4309 18.782 53.8688C18.914 53.7519 19.043 53.6566 19.1536 53.5674C19.3748 53.3829 19.6266 53.2384 19.8969 53.14C20.2225 53.0201 20.6525 52.8663 20.8767 52.7956C21.8258 52.4911 22.6459 52.2421 22.9684 52.1652C24.0434 51.9069 25.4317 51.5133 26.7924 50.9628C27.4128 50.7107 28.064 51.2427 27.9381 51.8977C27.7231 53.0231 27.2593 54.5299 26.3102 56.2519C24.5963 59.3731 22.4739 61.0213 20.2286 62.771C18.0417 64.4715 15.7811 66.2243 14.0488 69.4132C13.8491 69.776 13.6587 70.1512 13.4806 70.5448C13.2994 70.9415 12.7588 70.9845 12.5161 70.6186C10.7715 67.9802 10.4889 65.1788 11.6715 62.2729ZM23.9052 79.2656H17.8789C17.0681 79.2656 16.5398 78.4231 16.8746 77.6851C17.2923 76.7687 17.7868 75.9261 18.3642 75.1358C20.6402 72.0239 23.7578 70.3879 26.7709 68.8074L27.5111 68.4168C32.6774 65.68 36.9129 59.6406 37.2846 55.2341C37.3215 54.8067 37.8068 54.5883 38.1415 54.8528C39.407 55.8614 40.7185 56.7655 42.0546 57.6603C42.0577 57.6603 42.0608 57.6634 42.0608 57.6665C44.3398 64.8928 41.5693 70.1665 33.605 73.789C32.4347 74.3209 29.7011 75.9538 26.8692 78.2201C26.0276 78.8935 24.9833 79.2656 23.9052 79.2656ZM56.1497 54.9512C56.1497 68.3799 45.2766 79.2656 31.8634 79.2656H30.3185C29.2097 79.2656 28.7643 77.8296 29.6796 77.2053C31.5624 75.923 33.1842 75.0467 34.0073 74.6715C41.4864 71.2736 44.693 66.2674 43.5781 59.7729C43.4982 59.3085 44.0296 58.9918 44.4074 59.2716C44.7268 59.5084 45.0002 59.7267 45.2183 59.9297L45.5008 60.1942C45.7035 60.3848 46.0353 60.2403 46.0322 59.9635L46.0138 54.4377C46.0138 54.0317 46.3056 53.6843 46.7079 53.6135L46.9383 53.5736C47.3714 53.4998 47.7707 53.3306 48.0901 53.0846C49.162 52.2636 48.6553 51.3011 48.4126 50.8368L48.3819 50.7753C48.3297 50.6769 48.2775 50.5938 48.2345 50.5262C48.3205 50.4216 48.4648 50.2525 48.5877 50.108C48.8057 49.862 48.901 49.5637 48.8733 49.25C48.8457 48.9333 48.6921 48.6443 48.5262 48.4229H48.5293C48.8426 48.223 49.2081 47.9431 49.2542 47.5249C49.3003 47.0821 48.99 46.7685 48.6552 46.4425C48.5692 46.3564 48.3112 46.0827 48.2682 46.0243C48.431 45.9659 49.1129 45.7783 49.1559 45.766C49.1559 45.766 49.158 45.766 49.162 45.766C49.3555 45.8767 49.5521 45.8583 49.6903 45.7968C49.9791 45.6584 50.3016 45.5077 50.0681 42.5495C50.0497 42.3004 50.0313 42.036 50.0282 41.7654C50.0221 41.2703 50.0128 40.3478 49.9698 39.2653C49.9207 38.4474 49.9852 37.8078 50.0528 37.1313C50.1695 35.9873 50.2893 34.8034 49.8255 32.7739C48.6522 27.617 44.8405 24.2468 39.536 23.6072C39.5974 23.5795 39.6589 23.5549 39.7295 23.5303C41.6953 22.8384 45.9554 23.2689 49.2726 26.3962H49.2757L49.4538 26.4393C49.7333 26.4977 50.0221 26.3901 50.1818 26.1533C50.4551 25.7413 50.9128 24.8218 51.7974 22.6754C52.4854 21.0149 53.2656 18.9761 53.3638 18.4103C53.4038 18.1582 53.3393 17.9675 53.1765 17.8415C49.9299 15.3353 40.8936 12.9829 33.0459 15.2799C28.0026 16.759 24.4642 19.9694 22.8179 24.5604C20.5358 30.9135 21.2821 34.3514 21.9978 37.6817C22.179 38.512 22.4155 40.0741 22.5169 40.8582C22.5568 41.1565 22.391 41.4425 22.1145 41.5593C21.0702 41.9929 18.4472 42.98 15.95 45.4923C13.069 48.3829 9.77021 53.7458 10.2647 62.9463C10.277 63.22 10.2494 63.4937 10.1941 63.7612C9.56749 66.6364 10.2832 69.4009 12.3257 72.0085C12.5622 72.3099 12.6298 72.7158 12.5131 73.0817C11.9479 74.8806 11.5087 76.455 11.5087 78.134C11.5087 78.2539 11.5117 78.3708 11.5148 78.4907C11.5302 78.912 11.2046 79.2626 10.7838 79.2626H8.4464C7.76453 79.2626 7.20552 78.706 7.20552 78.0172V35.1755C7.20552 21.7468 18.0786 10.8611 31.4918 10.8611H55.0624C55.6613 10.8611 56.1497 11.35 56.1497 11.9497V54.9512Z" fill="#3C1913"/>
<path d="M45.8111 39.456C45.8111 39.3022 45.6851 39.1792 45.5346 39.1823L42.1498 39.2069C42.0178 39.2069 41.9133 39.3145 41.9133 39.4437V39.9203C41.9195 40.0618 42.0362 40.1786 42.1775 40.1756L43.3139 40.1694C43.3231 40.5753 43.5443 40.9289 43.8699 41.1319C44.0634 41.258 44.2968 41.3318 44.5425 41.3318C44.5855 41.3318 44.6224 41.3287 44.6623 41.3256C45.2797 41.2672 45.765 40.766 45.7742 40.151H45.8172L45.8111 39.456ZM44.5425 40.5384C44.3367 40.5384 44.1709 40.3847 44.1463 40.1848H44.9388C44.9142 40.3847 44.7452 40.5384 44.5425 40.5384Z" fill="#3C1913"/>
<path d="M37.859 0.362856V7.06032C37.859 7.19562 37.7484 7.30325 37.6163 7.30325H37.1617C37.0266 7.30325 36.9191 7.19562 36.9191 7.06032V1.02707H36.8976L35.9239 1.5529C35.7857 1.62978 35.6137 1.5529 35.5738 1.39915L35.5093 1.14392C35.4816 1.03629 35.5308 0.925591 35.6291 0.873315L36.9774 0.150678C37.0112 0.132227 37.0512 0.119927 37.0911 0.119927H37.6163C37.7484 0.119927 37.859 0.230629 37.859 0.362856Z" fill="#3C1913"/>
<path d="M42.8809 0C41.4127 0 40.4298 1.19312 40.4298 2.55229C40.4298 3.77924 41.256 4.75096 42.5491 4.75096C43.2679 4.75096 43.8392 4.46498 44.2385 3.97912H44.2722C44.1371 4.82783 43.7962 5.45822 43.3201 5.88873C42.9146 6.27618 42.3833 6.50989 41.8212 6.58676C41.6062 6.60829 41.4311 6.62366 41.2775 6.62674C41.1424 6.62981 41.038 6.73436 41.038 6.86967V7.1741C41.038 7.3094 41.1455 7.4201 41.2806 7.41703C41.471 7.41395 41.6891 7.3955 41.9318 7.3586C42.7027 7.26942 43.4644 6.94039 44.0173 6.39918C44.7237 5.71345 45.252 4.60643 45.252 3.02893C45.252 1.19312 44.349 0 42.8809 0ZM44.1832 3.25956C43.9282 3.69006 43.4214 4.00987 42.7703 4.00987C41.9318 4.00987 41.3912 3.38256 41.3912 2.48464C41.3912 1.46988 41.9748 0.741088 42.8041 0.741088C43.8177 0.741088 44.2722 1.67898 44.2722 2.90592C44.2722 3.05968 44.2384 3.17038 44.1832 3.25956Z" fill="#3C1913"/>
<path d="M49.1835 0.362856V7.06032C49.1835 7.19562 49.073 7.30325 48.9409 7.30325H48.4863C48.3542 7.30325 48.2437 7.19562 48.2437 7.06032V1.02707H48.2222L47.2485 1.5529C47.1103 1.62978 46.9383 1.5529 46.8984 1.39915L46.8339 1.14392C46.8062 1.03629 46.8554 0.925591 46.9537 0.873315L48.302 0.150678C48.3358 0.132227 48.3757 0.119927 48.4157 0.119927H48.9409C49.073 0.119927 49.1835 0.230629 49.1835 0.362856Z" fill="#3C1913"/>
<path d="M56.248 5.27064C56.248 6.42071 55.3542 7.42625 53.6311 7.42625C52.9461 7.42625 52.3349 7.24175 51.9479 7.04495C51.8404 6.98959 51.7912 6.86352 51.8342 6.74974L51.9356 6.45454C51.9847 6.32231 52.1352 6.25466 52.2642 6.31616C52.5929 6.47299 53.0966 6.64211 53.6188 6.64211C54.8658 6.64211 55.2528 5.84567 55.2436 5.24911C55.2313 4.24357 54.3252 3.81307 53.3884 3.81307H53.0905C52.9553 3.81307 52.8478 3.70236 52.8478 3.57014V3.32413C52.8478 3.1919 52.9553 3.08428 53.0905 3.08428H53.3884C54.0948 3.08428 54.9887 2.71835 54.9887 1.86656C54.9887 1.29152 54.6231 0.784138 53.7293 0.784138C53.284 0.784138 52.8509 0.937891 52.5345 1.11009C52.4055 1.18082 52.2427 1.11317 52.1936 0.974792L52.1076 0.734938C52.0677 0.621161 52.1076 0.501234 52.212 0.439732C52.6144 0.206029 53.2502 0 53.9167 0C55.3296 0 55.9715 0.839489 55.9715 1.7128C55.9715 2.45389 55.5292 3.08428 54.6477 3.40408V3.42561C55.5292 3.60089 56.248 4.2651 56.248 5.27064Z" fill="#3C1913"/>
</g>
</svg>
