<svg width="210" height="32" viewBox="0 0 210 32" fill="none" xmlns="http://www.w3.org/2000/svg">
<g id="logotype">
<path d="M30.2149 0.225348C29.3603 0.225348 29.3144 0.225352 28.91 1.03478L18.9579 21.9051L17.2486 25.7361L15.5807 21.9511L6.97939 3.92297C5.67449 1.17275 4.54878 0.225348 2.43061 0.225348H0V0.676057C1.2176 0.676057 2.02628 1.66484 2.02628 3.38027V31.7747H4.45689V9.23944L4.36959 3.47226L16.7983 29.4338H17.7448L30.1276 3.47226L30.0357 9.23944V31.7747H32.4664V0.225348H30.2149Z" fill="#394E49"/>
<path d="M53.7216 0.225348H51.0199L37.6446 31.7747H40.3463L43.8107 23.5746C44.1737 22.7606 44.2197 22.7606 45.0743 22.7606H59.6626C60.2629 22.7606 60.6841 23.0319 60.9261 23.5746L64.3905 31.7747H67.0922L53.7216 0.225348ZM45.0284 20.645L52.3707 3.20092L59.7085 20.645H45.0284Z" fill="#394E49"/>
<path d="M89.0688 21.4084C88.4348 20.553 88.0304 20.0103 87.5342 19.6976C93.3465 18.5249 95.5061 14.7399 95.5061 10.0489C95.5061 3.73899 92.3081 0.225348 83.3024 0.225348H70.2442V0.676057C71.4618 0.676057 72.2705 1.66484 72.2705 3.38027V31.7747H74.7471V20.1023H83.3024C84.8325 20.1023 85.2828 20.4197 85.7331 21.0497L93.1627 31.2366C93.4354 31.5953 93.7968 31.7747 94.2471 31.7747H96.6777L89.0688 21.4084ZM84.0698 17.9822H74.7471V2.34549H84.0698C89.9694 2.34549 93.0295 4.86576 93.0295 10.0489C93.0295 15.232 90.0107 17.9822 84.0698 17.9822Z" fill="#394E49"/>
<path d="M102.977 0.225348H100.951V0.676057C102.168 0.676057 102.977 1.66484 102.977 3.38027V31.7747H105.454V2.34549C105.412 1.08076 104.374 0.225348 102.977 0.225348Z" fill="#394E49"/>
<path d="M137.203 0.225348V22.7606L137.428 28.5783L120.001 3.92297C118.153 1.30612 116.936 0.225348 114.91 0.225348H112.883V0.676057C114.101 0.676057 114.91 1.66484 114.91 3.38027V31.7747H117.386V9.23944L117.207 4.28169L136.257 31.2366C136.526 31.5953 136.886 31.7747 137.336 31.7747H139.68V0.225348H137.203Z" fill="#394E49"/>
<path d="M161.606 0C153.05 0 147.555 3.739 147.555 12.0356V19.969C147.555 28.261 153.05 32 161.606 32C170.161 32 175.657 28.261 175.657 19.969V12.0356C175.657 3.739 170.161 0 161.606 0ZM173.18 19.877C173.313 26.9089 168.902 29.8844 161.606 29.8844C154.309 29.8844 150.032 26.9089 150.032 19.877V12.123C150.032 5.09111 154.309 2.11554 161.606 2.11554C168.902 2.11554 173.18 5.09111 173.18 12.123V19.877Z" fill="#394E49"/>
<path d="M207.535 0.225348C207.084 0.225348 206.77 0.435367 206.593 0.855412L197.72 21.4084L194.431 29.5211L191.099 21.4084L182.723 2.02816C182.186 0.763426 181.464 0.225348 180.159 0.225348H178.133V0.676057C179.034 0.676057 179.796 1.48547 180.61 3.38027L192.855 31.7747H195.556L209.157 0.225348H207.535Z" fill="#394E49"/>
</g>
</svg>
