<svg width="22" height="13" viewBox="0 0 22 13" fill="none" xmlns="http://www.w3.org/2000/svg">
<path d="M11.1413 2.99277L20.3643 12.2034C20.4539 12.2934 20.5606 12.3645 20.6781 12.4125C20.7956 12.4606 20.9216 12.4845 21.0485 12.483C21.1755 12.4814 21.3008 12.4544 21.4171 12.4036C21.5335 12.3527 21.6384 12.279 21.7257 12.1869C21.9046 11.9984 22.003 11.7476 21.9999 11.4877C21.9968 11.2279 21.8926 10.9794 21.7092 10.7953L11.8042 0.903946C11.7153 0.814465 11.6095 0.743599 11.4929 0.695493C11.3763 0.647387 11.2513 0.623005 11.1252 0.623774C10.9991 0.624542 10.8744 0.650445 10.7584 0.699967C10.6424 0.74949 10.5374 0.821638 10.4497 0.912195L0.280559 11.3233C0.100586 11.5097 0 11.7587 0 12.0177C0 12.2768 0.100586 12.5258 0.280559 12.7122C0.368997 12.8033 0.47481 12.8757 0.591732 12.9251C0.708653 12.9745 0.834306 13 0.961249 13C1.08819 13 1.21385 12.9745 1.33077 12.9251C1.44769 12.8757 1.5535 12.8033 1.64194 12.7122L11.1413 2.99277Z" fill="#FBFAF8"/>
</svg>
