<svg width="201" height="266" viewBox="0 0 201 266" fill="none" xmlns="http://www.w3.org/2000/svg">
<path d="M143.695 123.027C143.695 123.027 143.699 123.06 143.699 123.074C143.699 124.602 142.398 125.847 140.795 125.847C139.191 125.847 137.928 124.64 137.89 123.145L134.504 123.155C134.226 123.155 133.995 122.957 133.991 122.716L133.981 121.41C133.976 121.165 134.207 120.967 134.49 120.967L143.379 120.924C143.657 120.924 143.888 121.122 143.893 121.363L143.902 122.669C143.907 122.815 143.822 122.947 143.69 123.027H143.695Z" fill="#FBFAF8"/>
<path d="M106.213 265.265H12.2176C5.75757 265.265 0.5 260.177 0.5 253.924V103.454C0.5 53.118 42.7964 12.1702 94.7874 12.1702H104.492C105.651 12.1702 106.595 13.0803 106.595 14.2072C106.595 15.3342 105.651 16.2443 104.492 16.2443H94.7874C45.1163 16.2443 4.70606 55.3672 4.70606 103.454V253.92C4.70606 257.928 8.07279 261.186 12.2128 261.186H106.213C155.884 261.186 196.294 222.063 196.294 173.976V15.0654C196.294 13.9385 197.237 13.0284 198.397 13.0284C199.557 13.0284 200.5 13.9385 200.5 15.0654V173.976C200.5 224.312 158.204 265.26 106.213 265.26V265.265Z" fill="#FBFAF8"/>
<path d="M175.066 30.2629H100.757C55.8908 30.2629 19.3895 65.5994 19.3895 109.042V240.085C19.3895 244.164 22.8129 247.479 27.0236 247.479H100.79C145.656 247.479 182.157 212.137 182.157 168.7V37.1284C182.157 33.342 178.979 30.2629 175.066 30.2629ZM44.9937 243.404H43.5697C41.7873 243.404 40.3208 241.957 40.3397 240.17C40.3868 235.624 41.66 231.267 43.3669 226.014C43.6545 225.142 43.9422 224.298 44.2487 223.478C45.3238 220.559 46.5733 217.829 47.9643 215.358C53.1087 206.224 59.6819 201.283 66.6417 196.049C73.7524 190.701 81.1083 185.175 86.9223 174.952C91.5998 166.719 93.0239 159.477 93.071 155.289C93.0805 154.379 93.5614 153.54 94.3206 153.035C98.5172 150.249 101.12 147.089 102.087 143.633C102.172 143.336 102.388 142.549 102.62 126.842V126.733C102.568 125.366 102.869 124.385 103.454 124.036C103.912 123.763 104.652 123.824 105.345 124.192C105.699 124.381 106.859 125.116 106.873 126.606C106.882 127.592 106.741 129.313 106.576 131.307C105.883 139.701 104.723 153.747 110.414 159.896C111.503 161.075 112.677 162.254 113.913 163.409L114.229 163.706C118.345 173.967 105.038 197.661 85.833 207.497L83.4989 208.686C74.0164 213.5 63.2702 218.951 55.5371 229.174C52.9154 232.635 50.8124 236.388 49.1479 240.575C48.4736 242.282 46.8279 243.404 44.9937 243.404ZM121.25 71.8095C114.87 71.0126 101.394 70.6495 89.8929 79.1371C81.6694 85.201 76.1336 94.5467 73.3516 107.028C73.1818 107.806 72.0596 107.768 71.9464 106.981C70.876 99.3799 71.1024 90.4256 76.0535 77.0859C80.948 63.8925 91.0764 55.0418 106.151 50.7698C124.664 45.5216 146.453 48.6715 159.354 53.9903C163.15 55.5511 164.956 59.9128 163.419 63.7227C162.061 67.0848 160.41 70.9655 159.019 73.9927C158.232 75.7185 156.077 76.3409 154.507 75.2753C143.275 67.6365 130.959 67.4195 125.149 69.4C123.4 69.9941 122.075 70.8193 121.25 71.8095ZM75.4782 125.974C75.464 125.852 75.4546 125.734 75.4358 125.611H75.4876C75.9261 104.92 81.6175 90.3831 92.4062 82.4001C102.068 75.2564 113.644 75.1715 119.713 75.7704C119.812 75.7798 119.911 75.7892 120.005 75.7987C120.811 75.8788 121.509 75.9731 122.084 76.0627C122.598 76.1429 123.013 76.2183 123.315 76.2749C123.518 76.289 123.716 76.3032 123.914 76.3221H123.919C146.835 78.2365 153.201 94.7636 154.884 101.912C156.219 107.575 155.884 110.772 155.53 114.158C155.304 116.284 155.073 118.482 155.242 121.245C155.379 124.437 155.407 127.12 155.426 128.789C155.44 129.737 155.511 130.666 155.577 131.439C155.738 133.424 155.804 134.938 155.813 136.065C155.181 135.594 154.281 134.915 154.035 134.57C153.663 127.752 152.036 123.324 151.253 121.193C151.14 120.891 151.046 120.641 150.98 120.434L150.819 120.075C150.739 119.939 142.667 106.316 120.703 114.441C118.18 115.374 117.209 116.822 116.836 117.873C116.19 119.717 116.973 121.344 117.237 121.815C122.089 131.472 131.487 132.076 137.706 132.472L138.579 132.529C142.412 132.793 142.587 134.584 142.587 134.882V134.962L142.667 162.532L142.554 162.551L142.653 174.089C142.671 176.249 140.281 177.555 138.475 176.381C137.904 176.008 137.32 175.631 136.725 175.249L136.244 174.938C131.166 171.652 124.272 167.191 118.119 161.665L117.459 161.061C116.072 159.793 114.757 158.482 113.55 157.176C109.061 152.328 110.173 138.866 110.768 131.633C110.951 129.454 111.093 127.733 111.079 126.564C111.055 124.107 109.636 121.834 107.377 120.627C105.35 119.543 103.001 119.524 101.243 120.571C100.125 121.24 98.2767 122.938 98.4135 126.832C98.3097 133.726 98.1353 141.507 97.9985 142.662C97.1262 145.656 94.33 148.476 89.6901 151.046C84.1072 154.129 77.1286 156.129 72.2624 157.26C70.9138 157.572 67.8064 158.496 65.3544 159.255H65.3308C64.5057 159.514 63.7701 158.675 64.1284 157.888C70.4281 144.086 75.9639 130.968 75.4782 125.974ZM150.744 148.315L151.55 149.117V149.343L151.296 149.645C150.923 150.088 150.918 150.73 151.286 151.173C151.451 151.376 151.536 151.626 151.536 151.876C151.536 152.125 151.442 152.389 151.263 152.597C149.707 154.356 148.971 155.483 150.258 157.473C150.362 157.628 150.485 157.817 150.612 158.057L150.72 158.255C151.607 159.892 151.546 160.09 150.697 160.717C150.155 161.122 149.438 161.405 148.632 161.542L148.429 161.575C147.613 161.707 146.868 161.08 146.868 160.255L146.788 135.061C146.802 134.561 146.745 132.75 145.27 131.105C143.879 129.549 141.724 128.662 138.871 128.469L137.984 128.407C131.793 128.011 124.777 127.563 121 119.986L120.924 119.849C120.924 119.849 120.717 119.458 120.825 119.175C120.943 118.868 121.457 118.519 122.207 118.246C139.705 111.767 146.236 120.655 147.052 121.914C147.118 122.103 147.198 122.315 147.288 122.56C148.009 124.527 149.518 128.62 149.839 134.924C149.895 135.961 150.409 136.801 151.15 137.555C151.626 138.046 151.588 138.833 151.051 139.257C150.603 139.611 150.235 140.05 150.004 140.596C149.622 141.507 149.509 142.945 151.15 144.633C151.503 145.001 151.843 145.326 152.159 145.628C152.295 145.755 152.451 145.906 152.602 146.052C152.531 146.095 152.456 146.142 152.376 146.194L151.734 146.585C151.527 146.708 151.183 146.934 150.857 147.146C150.456 147.41 150.4 147.981 150.744 148.315ZM69.0701 135.414C66.2833 143.176 61.6152 153.337 59.3848 158.199C58.4276 160.269 57.8429 161.551 57.527 162.395C57.2629 163.112 56.8103 163.739 56.2114 164.211C51.9205 167.629 44.8569 173.509 39.3542 180.95C38.4347 182.195 36.459 181.431 36.6052 179.894C38.0386 164.682 43.6027 152.257 53.2361 142.832C58.0127 138.149 62.9496 135.127 66.6794 133.283C68.0704 132.595 69.5935 133.953 69.0701 135.414ZM37.7415 191.946C42.7445 180.097 54.5139 170.807 60.1676 166.342C61.0258 165.663 61.7 165.135 62.2046 164.706H62.2093L63.4919 164.121C64.4632 163.81 65.543 163.47 66.6276 163.14C69.6265 162.211 72.2246 161.457 73.2431 161.221C76.4024 160.481 80.4104 159.396 84.4326 157.892C86.4884 157.124 88.5632 158.948 88.0539 161.085C87.2853 164.319 85.8425 168.403 83.2396 172.986C77.8453 182.473 71.1495 187.504 64.0624 192.833C57.0696 198.09 49.8363 203.527 44.2675 213.41C43.8809 214.094 43.5037 214.797 43.1406 215.518C42.4003 216.98 40.3397 217.102 39.4815 215.702C34.8511 208.148 34.2616 200.184 37.7415 191.946ZM56.9564 243.404C54.8157 243.404 53.3775 241.174 54.2923 239.241C55.5984 236.492 57.1309 233.955 58.9322 231.578C66.0853 222.124 75.9309 217.126 85.4511 212.293L87.7993 211.1C103.657 202.975 116.751 185.439 118.897 171.901C119.161 170.256 121.094 169.492 122.433 170.487C125.616 172.859 128.889 175.056 132.213 177.22C132.925 177.687 133.444 178.394 133.689 179.21C139.96 200.358 131.105 215.881 106.675 226.623C102.374 228.513 91.5008 234.375 81.1413 243.032L81.4714 243.404H56.9564ZM177.951 168.7C177.951 209.893 143.336 243.404 100.79 243.404H90.9727C89.7797 243.404 89.2799 241.867 90.2513 241.169C98.0268 235.539 105.175 231.748 108.415 230.329C131.869 220.017 142.247 204.937 139.371 185.42C139.149 183.921 140.861 182.912 142.058 183.836C142.563 184.223 143.011 184.59 143.402 184.944L145.699 187.005C146.18 187.438 146.948 187.094 146.948 186.448L146.882 165.97L149.348 165.555C150.824 165.305 152.173 164.753 153.257 163.951C157.039 161.141 155.219 157.789 154.446 156.36L154.342 156.176C154.247 155.997 154.153 155.836 154.068 155.695C154.318 155.407 154.644 155.044 154.926 154.728C155.709 153.856 156.072 152.804 155.969 151.682C155.888 150.824 155.544 150.041 155.125 149.381C155.11 149.353 155.115 149.32 155.143 149.301C156.091 148.65 157.025 147.768 157.171 146.486C157.355 144.864 156.214 143.775 155.11 142.723C154.912 142.534 154.7 142.332 154.479 142.115C155.016 141.973 155.723 141.86 156.346 141.832L156.336 141.653C157.034 141.936 157.732 141.851 158.241 141.62C159.632 140.993 160.486 139.922 159.769 131.114C159.708 130.36 159.647 129.553 159.632 128.681C159.614 127.054 159.585 124.333 159.444 121.042C159.293 118.567 159.5 116.624 159.713 114.568C160.09 111.008 160.476 107.321 158.986 101.007C155.676 86.9645 145.901 77.1802 132.104 73.5872C131.411 73.408 131.539 72.3895 132.251 72.3801C139.319 72.2622 148.665 74.9735 156.294 81.9333L157.303 82.7868L158.496 82.3954C159.467 82.0795 160.307 81.806 165.22 70.31C166.913 66.3539 169.869 59.1112 170.218 57.0883C170.43 55.8576 169.902 55.1692 169.421 54.8108C159.015 47.0447 130.072 39.7454 104.972 46.8608C88.7612 51.4535 77.3926 61.4264 72.0973 75.7091C64.8027 95.3672 67.2877 106.495 69.4803 116.313C70.2348 119.698 70.9515 122.9 71.2863 126.361C71.2863 126.385 71.291 126.408 71.291 126.432C71.291 126.757 71.0788 127.059 70.7582 127.158C67.83 128.11 58.9746 131.486 50.4069 139.804C41.047 148.891 30.3244 165.833 32.2576 195.011C29.6265 204.909 32.1822 214.382 39.8823 223.232C39.7031 223.742 39.5286 224.26 39.3542 224.793C37.6331 230.098 36.2656 234.785 36.1431 239.736C36.0912 241.768 34.4691 243.404 32.4368 243.404H27.0236C25.1328 243.404 23.5956 241.914 23.5956 240.085V109.042C23.5956 67.8486 58.2107 34.3369 100.757 34.3369H175.066C176.659 34.3369 177.951 35.5865 177.951 37.1284V168.7Z" fill="#FBFAF8"/>
<path d="M121.042 1.62678V22.2091C121.042 22.8976 120.458 23.4587 119.746 23.4587H118.303C117.586 23.4587 117.006 22.8976 117.006 22.2091V4.48426L114.62 5.73382C114.266 5.91772 113.851 5.93658 113.484 5.77626C113.116 5.62065 112.847 5.31416 112.748 4.93693L112.541 4.15419C112.394 3.59307 112.663 3.01308 113.187 2.7396L117.463 0.5234C117.652 0.424378 117.864 0.37251 118.076 0.37251H119.746C120.458 0.37251 121.042 0.938347 121.042 1.62678Z" fill="#FBFAF8"/>
<path d="M136.471 0C131.807 0 128.158 3.66851 128.158 8.35082C128.158 12.5616 131.213 15.6171 135.419 15.6171C137.192 15.6171 138.758 15.1173 140.031 14.1554C139.536 15.834 138.692 17.1967 137.513 18.2341C136.334 19.3139 134.783 20.0071 133.052 20.2381C132.392 20.2994 131.84 20.3513 131.364 20.3607C130.647 20.3796 130.086 20.9266 130.086 21.615V22.5533C130.086 22.8976 130.228 23.2135 130.478 23.454C130.718 23.685 131.034 23.8076 131.374 23.8076H131.397C132.09 23.7982 132.812 23.7322 133.514 23.6284C136.155 23.3361 138.682 22.2044 140.446 20.5305C142.313 18.7858 144.534 15.5039 144.534 9.81257C144.534 4.12118 141.37 0 136.471 0ZM136.226 3.296C139.96 3.296 140.361 7.59165 140.361 9.44006C140.361 9.78428 140.3 10.0436 140.153 10.2652C139.371 11.5572 137.862 12.3258 136.117 12.3258C133.774 12.3258 132.26 10.6849 132.26 8.14806C132.26 5.29058 133.891 3.296 136.226 3.296Z" fill="#FBFAF8"/>
<path d="M157.02 1.62678V22.2091C157.02 22.8976 156.44 23.4587 155.723 23.4587H154.281C153.568 23.4587 152.989 22.8976 152.989 22.2091V4.48426L150.598 5.73382C150.244 5.91772 149.829 5.93658 149.461 5.77626C149.094 5.62065 148.825 5.31416 148.726 4.93693L148.523 4.15419C148.377 3.59307 148.641 3.01308 149.164 2.7396L153.446 0.5234C153.635 0.424378 153.842 0.37251 154.054 0.37251H155.723C156.44 0.37251 157.02 0.938347 157.02 1.62678Z" fill="#FBFAF8"/>
<path d="M179.46 16.7064C179.46 20.2523 176.73 23.8312 170.624 23.8312C168.676 23.8312 166.592 23.3738 165.041 22.6099C164.47 22.327 164.202 21.6669 164.418 21.0727L164.744 20.1768C164.866 19.8373 165.135 19.5638 165.475 19.4318C165.805 19.2998 166.187 19.3045 166.512 19.4554C167.125 19.743 168.747 20.4032 170.591 20.4032C172.175 20.4032 173.387 19.9976 174.203 19.196C174.868 18.5406 175.235 17.6117 175.216 16.6451C175.188 13.7593 172.425 12.7313 169.855 12.7313H168.903C168.191 12.7313 167.611 12.1702 167.611 11.4771V10.7273C167.611 10.0342 168.191 9.47306 168.903 9.47306H169.855C171.685 9.47306 174.41 8.61488 174.41 6.24779C174.41 4.45597 173.146 3.42803 170.94 3.42803C169.407 3.42803 168.059 4.01745 167.394 4.3711C167.068 4.54085 166.682 4.56442 166.333 4.43711C165.974 4.30508 165.692 4.02688 165.564 3.67794L165.286 2.93764C165.074 2.36709 165.314 1.73052 165.857 1.42402C167.436 0.53283 169.558 0 171.539 0C176.405 0 178.583 2.89992 178.583 5.77154C178.583 7.96416 177.395 9.78427 175.278 10.9065C177.857 11.8684 179.46 14.0375 179.46 16.7064Z" fill="#FBFAF8"/>
</svg>
